# xmcd CD database file
#
# Track frame offsets:
#	150
#	21195
#	35397
#	48880
#	68637
#	89207
#	103027
#	119742
#	137087
#	149497
#	164827
#	178115
#	195315
#	205162
#
# Disc length: 3015 seconds
#
# Revision: 0
# Processed by: cddbd v1.5.2PL0 Copyright (c) Steve Scherf et al.
# Submitted via: CDex 1.70beta2
#
DISCID=d30bc50e
DTITLE=Country Dědows - Spadaný listí
DYEAR=1900
DGENRE=Country
TTITLE0=Balíček čokolády
TTITLE1=Podkova
TTITLE2=Pohled
TTITLE3=Chraňte své děti
TTITLE4=Popelka
TTITLE5=Vánoce
TTITLE6=Snad
TTITLE7=Šach
TTITLE8=Hek
TTITLE9=Líza
TTITLE10=Snílek
TTITLE11=Happy woman
TTITLE12=Angrešt waltz
TTITLE13=Chuďasů král
EXTD=
EXTT0=
EXTT1=
EXTT2=
EXTT3=
EXTT4=
EXTT5=
EXTT6=
EXTT7=
EXTT8=
EXTT9=
EXTT10=
EXTT11=
EXTT12=
EXTT13=
PLAYORDER=
